<svg width="150" height="150" viewBox="0 0 150 150" fill="none" xmlns="http://www.w3.org/2000/svg">
<g filter="url(#filter0_d_82_858)">
<circle cx="75" cy="60" r="55" fill="white"/>
</g>
<path d="M75 100C97.0914 100 115 82.0914 115 60C115 37.9086 97.0914 20 75 20C52.9086 20 35 37.9086 35 60C35 82.0914 52.9086 100 75 100Z" fill="#25D366"/>
<path fill-rule="evenodd" clip-rule="evenodd" d="M76.3181 82.254H76.3083C72.3275 82.2527 68.416 81.2539 64.9419 79.3589L52.333 82.6665L55.7074 70.3412C53.6259 66.734 52.5306 62.6423 52.5324 58.4502C52.5376 45.336 63.2077 34.6665 76.3179 34.6665C82.6807 34.6693 88.6527 37.1463 93.1433 41.6422C97.634 46.1379 100.106 52.1137 100.103 58.469C100.098 71.5803 89.4322 82.2487 76.3181 82.254ZM65.5261 75.053L66.248 75.4814C69.2833 77.2826 72.7627 78.2357 76.3101 78.2371H76.3181C87.2144 78.2371 96.0829 69.3684 96.0872 58.4676C96.0893 53.1852 94.0349 48.2183 90.3025 44.4815C86.57 40.7447 81.6063 38.6857 76.3259 38.6839C65.4212 38.6839 56.5526 47.5517 56.5483 58.4516C56.5468 62.1871 57.592 65.825 59.5709 68.9726L60.041 69.7205L58.0438 77.0157L65.5261 75.053ZM87.487 63.5899C87.9015 63.7903 88.1814 63.9255 88.301 64.125C88.4495 64.3728 88.4495 65.5628 87.9545 66.9513C87.459 68.3395 85.0848 69.6065 83.9428 69.777C82.919 69.9301 81.6232 69.994 80.1996 69.5415C79.3364 69.2677 78.2295 68.902 76.8115 68.2896C71.2399 65.8839 67.4747 60.4838 66.7631 59.4632C66.7132 59.3917 66.6784 59.3417 66.6589 59.3157L66.6541 59.3093C66.3396 58.8897 64.2322 56.0779 64.2322 53.1678C64.2322 50.4302 65.5769 48.9953 66.1959 48.3349C66.2383 48.2896 66.2773 48.248 66.3122 48.2098C66.857 47.6148 67.5009 47.4661 67.8971 47.4661C68.2932 47.4661 68.6899 47.4698 69.0361 47.4871C69.0789 47.4893 69.1233 47.489 69.1692 47.4888C69.5156 47.4867 69.9474 47.4842 70.3733 48.5073C70.5372 48.9011 70.7769 49.4848 71.0298 50.1004C71.5412 51.3455 72.1063 52.7211 72.2057 52.9202C72.3543 53.2177 72.4533 53.5646 72.2552 53.9614C72.2255 54.0209 72.198 54.0771 72.1717 54.1307C72.0229 54.4345 71.9135 54.6579 71.6609 54.9528C71.5616 55.0687 71.459 55.1937 71.3564 55.3187C71.1519 55.5677 70.9475 55.8167 70.7694 55.994C70.4719 56.2904 70.1622 56.6119 70.5089 57.2069C70.8556 57.8019 72.0483 59.748 73.8151 61.324C75.7143 63.018 77.3649 63.734 78.2016 64.0969C78.365 64.1678 78.4974 64.2252 78.5945 64.2738C79.1885 64.5714 79.5352 64.5216 79.8819 64.125C80.2286 63.7284 81.3676 62.3896 81.7637 61.7947C82.1599 61.1999 82.5562 61.299 83.1009 61.4973C83.6458 61.6958 86.5677 63.1334 87.162 63.4308C87.278 63.4889 87.3865 63.5413 87.487 63.5899Z" fill="#FDFDFD"/>
<defs>
<filter id="filter0_d_82_858" x="0" y="0" width="150" height="150" filterUnits="userSpaceOnUse" color-interpolation-filters="sRGB">
<feFlood flood-opacity="0" result="BackgroundImageFix"/>
<feColorMatrix in="SourceAlpha" type="matrix" values="0 0 0 0 0 0 0 0 0 0 0 0 0 0 0 0 0 0 127 0" result="hardAlpha"/>
<feOffset dy="15"/>
<feGaussianBlur stdDeviation="10"/>
<feColorMatrix type="matrix" values="0 0 0 0 0 0 0 0 0 0 0 0 0 0 0 0 0 0 0.05 0"/>
<feBlend mode="normal" in2="BackgroundImageFix" result="effect1_dropShadow_82_858"/>
<feBlend mode="normal" in="SourceGraphic" in2="effect1_dropShadow_82_858" result="shape"/>
</filter>
</defs>
</svg>
